<svg width="66" height="36" viewBox="0 0 66 36" fill="none" xmlns="http://www.w3.org/2000/svg">
    <path d="M35.0103 9.64167H32.1663C31.8199 9.64167 31.5389 9.92394 31.5389 10.2704V16.151C31.5323 16.5148 31.238 16.8064 30.8728 16.8064H29.6822C29.313 16.8064 29.0147 16.5094 29.0147 16.1402L29.004 10.2704C29.004 9.92394 28.7217 9.64171 28.3753 9.64171H25.5313C25.1835 9.64171 24.9026 9.92394 24.9026 10.2704V16.7155C24.9026 19.1634 26.6483 20.9092 29.0976 20.9092C29.0976 20.9092 30.9356 20.9092 30.9918 20.9199C31.3236 20.9573 31.5818 21.2355 31.5818 21.578C31.5818 21.9164 31.3289 22.1933 31.0012 22.2348C30.9852 22.2375 30.9705 22.2415 30.9531 22.2442L26.7941 22.2589C26.4463 22.2589 26.1654 22.5411 26.1654 22.8876V25.7302C26.1654 26.078 26.4463 26.3589 26.7941 26.3589H31.444C33.8946 26.3589 35.639 24.6146 35.639 22.1653V10.2704C35.639 9.92394 35.3581 9.64167 35.0103 9.64167ZM7.48277 14.8527V16.6078C7.48277 16.9756 7.18446 17.2753 6.81661 17.2753L5.01204 17.2766V13.7598H6.81661C7.18446 13.7598 7.48277 14.0568 7.48277 14.426V14.8527ZM7.73292 9.64099H1.51661C1.17549 9.64099 0.899933 9.91791 0.899933 10.2577V13.0441C0.899933 13.0495 0.90126 13.0548 0.90126 13.0602C0.90126 13.0735 0.899933 13.0869 0.899933 13.099V25.7108C0.899933 26.0533 1.15676 26.3329 1.47517 26.3409H4.37257C4.71903 26.3409 5.00127 26.06 5.00127 25.7122L5.012 21.3901H7.73289C10.0096 21.3901 11.5962 19.8102 11.5962 17.5241V13.5123C11.5962 11.2262 10.0097 9.64099 7.73292 9.64099ZM19.2828 21.5294V21.9736C19.2828 22.0097 19.2774 22.0445 19.2721 22.0779C19.2654 22.1093 19.2565 22.1401 19.2453 22.1702C19.157 22.419 18.9082 22.5996 18.6126 22.5996H17.4287C17.0595 22.5996 16.7586 22.3187 16.7586 21.9736V21.4371C16.7586 21.4305 16.7572 21.4238 16.7572 21.4171L16.7586 19.9898V19.5429L16.7599 19.539C16.7612 19.1951 17.0595 18.9169 17.4287 18.9169H18.6126C18.9831 18.9169 19.2828 19.1965 19.2828 19.543L19.2828 21.5294ZM18.8307 9.65733H14.8844C14.5353 9.65733 14.2531 9.9222 14.2531 10.2472V11.3535C14.2531 11.3602 14.2544 11.3682 14.2544 11.3749C14.2544 11.383 14.253 11.391 14.253 11.399V12.9146C14.253 13.2584 14.5527 13.5393 14.9219 13.5393H18.6795C18.9765 13.5862 19.2119 13.8029 19.2454 14.1413V14.5078C19.2119 14.8302 18.9792 15.0656 18.6955 15.0924H16.8348C14.3601 15.0924 12.597 16.7365 12.597 19.0453V22.3521C12.597 24.6476 14.1126 26.2809 16.5699 26.2809H21.7268C22.6525 26.2809 23.4029 25.58 23.4029 24.7172V13.9259C23.4029 11.3094 22.0546 9.65733 18.8307 9.65733Z" fill="#1F336B"/>
    <path d="M64.8847 13.8992C64.3055 12.2431 62.727 11.0539 60.873 11.0539H60.8342C59.6289 11.0539 58.5427 11.5555 57.7695 12.3608C56.995 11.5555 55.9088 11.0539 54.7048 11.0539H54.666C53.6066 11.0539 52.6381 11.4418 51.8943 12.0839V11.7575C51.8689 11.4324 51.6014 11.1769 51.2709 11.1769H48.427C48.0792 11.1769 47.7983 11.4578 47.7983 11.807V27.2508C47.7983 27.5999 48.0792 27.8808 48.427 27.8808H51.2709C51.588 27.8808 51.8488 27.6441 51.8903 27.3377L51.889 16.2508C51.8887 16.2137 51.8905 16.1767 51.8943 16.1398C51.9398 15.6448 52.3023 15.2382 52.8749 15.1873H53.3992C53.6387 15.2087 53.8407 15.293 53.9998 15.4201C54.2473 15.6167 54.3851 15.9191 54.3851 16.2508L54.3958 27.2829C54.3958 27.632 54.678 27.9142 55.0245 27.9142H57.8684C58.2042 27.9142 58.4771 27.6467 58.4932 27.3136L58.4918 16.2361C58.4905 15.8722 58.6591 15.5432 58.9547 15.3479C59.1005 15.2542 59.2758 15.1914 59.4777 15.1726H60.0021C60.6174 15.2261 60.9893 15.693 60.988 16.2361L60.9987 27.2534C60.9987 27.6026 61.281 27.8835 61.6274 27.8835H64.4714C64.8178 27.8835 65.1001 27.6026 65.1001 27.2534V15.4041C65.1001 14.5961 65.0092 14.2523 64.8847 13.8992ZM45.6317 11.2172H44.0051V8.57387C44.0051 8.25683 43.7482 8 43.4312 8C43.3937 8 43.3576 8.00531 43.3229 8.01202C41.5196 8.50698 41.8808 11.0045 38.5887 11.2172H38.269C38.2208 11.2172 38.1754 11.2238 38.1312 11.2332C37.8503 11.2961 37.639 11.5462 37.639 11.8459V14.6898C37.639 15.0363 37.9212 15.3185 38.269 15.3185H39.9853L39.9826 27.378C39.9826 27.7217 40.2609 28 40.6046 28H43.4165C43.7589 28 44.0372 27.7217 44.0372 27.378L44.0385 15.3185H45.6317C45.9782 15.3185 46.2604 15.0363 46.2604 14.6898V11.8459C46.2604 11.4994 45.9782 11.2172 45.6317 11.2172Z" fill="#00BAF2"/>
</svg>
