<svg width="113" height="36" viewBox="0 0 113 36" fill="none" xmlns="http://www.w3.org/2000/svg">
    <path d="M32.5616 21.4385C34.4606 13.3964 29.4806 5.33748 21.4384 3.43851C13.3963 1.53953 5.33738 6.51955 3.4384 14.5617C1.53943 22.6038 6.51945 30.6627 14.5616 32.5617C22.6037 34.4607 30.6626 29.4807 32.5616 21.4385Z" fill="#5F259F"/>
    <path d="M24.792 14.096C24.792 13.5109 24.2905 13.0094 23.7054 13.0094H21.6992L17.1018 7.74319C16.6838 7.24165 16.0151 7.07447 15.3464 7.24165L13.7582 7.74319C13.5074 7.82678 13.4238 8.16114 13.591 8.32832L18.6064 13.0929H10.9997C10.7489 13.0929 10.5818 13.2601 10.5818 13.5109V14.3468C10.5818 14.9319 11.0833 15.4335 11.6684 15.4335H12.8387V19.4458C12.8387 22.455 14.4269 24.2104 17.1018 24.2104C17.9377 24.2104 18.6064 24.1268 19.4423 23.7924V26.4673C19.4423 27.2196 20.0274 27.8048 20.7797 27.8048H21.95C22.2008 27.8048 22.4515 27.554 22.4515 27.3032V15.3499H24.3741C24.6249 15.3499 24.792 15.1827 24.792 14.9319V14.096ZM19.4423 21.2848C18.9407 21.5355 18.272 21.6191 17.7705 21.6191C16.433 21.6191 15.7643 20.9504 15.7643 19.4458V15.4335H19.4423V21.2848Z" fill="white"/>
    <path d="M78.4749 24.2273V18.794C78.4749 17.4566 77.9733 16.7878 76.7194 16.7878C76.2178 16.7878 75.6326 16.8714 75.2982 16.955V24.8961C75.2982 25.1468 75.0474 25.3976 74.7966 25.3976H72.8739C72.6232 25.3976 72.3724 25.1468 72.3724 24.8961V15.6176C72.3724 15.2832 72.6232 15.0324 72.8739 14.9489C74.1279 14.5309 75.3818 14.2801 76.7194 14.2801C79.7288 14.2801 81.4007 15.8683 81.4007 18.794V24.9796C81.4007 25.2304 81.1499 25.4812 80.8991 25.4812H79.7288C78.9764 25.4812 78.4749 24.8961 78.4749 24.2273ZM85.9985 20.9673L85.9149 21.7196C85.9149 22.7227 86.5837 23.3078 87.6704 23.3078C88.5064 23.3078 89.2587 23.0571 90.0947 22.6391C90.1783 22.6391 90.2619 22.5555 90.3455 22.5555C90.5127 22.5555 90.5963 22.6391 90.6799 22.7227C90.7635 22.8063 90.9306 23.0571 90.9306 23.0571C91.0978 23.3078 91.265 23.6422 91.265 23.893C91.265 24.3109 91.0142 24.7289 90.6799 24.8961C89.7603 25.3976 88.6736 25.6484 87.5032 25.6484C86.1657 25.6484 85.0789 25.314 84.243 24.6453C83.407 23.893 82.9054 22.8899 82.9054 21.636V18.376C82.9054 15.7848 84.5774 14.1965 87.4196 14.1965C90.1783 14.1965 91.7666 15.7012 91.7666 18.376V20.3822C91.7666 20.633 91.5158 20.8837 91.265 20.8837H85.9985V20.9673ZM85.9149 19.1284H89.0915V18.2925C89.0915 17.2894 88.5064 16.6207 87.5032 16.6207C86.5001 16.6207 85.9149 17.2058 85.9149 18.2925V19.1284ZM107.232 20.9673L107.148 21.7196C107.148 22.7227 107.817 23.3078 108.904 23.3078C109.74 23.3078 110.492 23.0571 111.328 22.6391C111.412 22.6391 111.495 22.5555 111.579 22.5555C111.746 22.5555 111.83 22.6391 111.913 22.7227C111.997 22.8063 112.164 23.0571 112.164 23.0571C112.331 23.3078 112.498 23.6422 112.498 23.893C112.498 24.3109 112.248 24.7289 111.913 24.8961C110.994 25.3976 109.907 25.6484 108.737 25.6484C107.399 25.6484 106.312 25.314 105.476 24.6453C104.64 23.893 104.139 22.8899 104.139 21.636V18.376C104.139 15.7848 105.811 14.1965 108.653 14.1965C111.412 14.1965 113 15.7012 113 18.376V20.3822C113 20.633 112.749 20.8837 112.498 20.8837H107.232V20.9673ZM107.148 19.1284H110.325V18.2925C110.325 17.2894 109.74 16.6207 108.737 16.6207C107.733 16.6207 107.148 17.2058 107.148 18.2925V19.1284ZM57.9939 25.4812H59.1642C59.415 25.4812 59.6658 25.2304 59.6658 24.9796V18.794C59.6658 15.9519 58.1611 14.2801 55.6532 14.2801C54.9008 14.2801 54.0649 14.4473 53.5633 14.6145V11.5217C53.5633 10.853 52.9781 10.2678 52.3094 10.2678H51.139C50.8882 10.2678 50.6374 10.5186 50.6374 10.7694V24.9796C50.6374 25.2304 50.8882 25.4812 51.139 25.4812H53.0617C53.3125 25.4812 53.5633 25.2304 53.5633 24.9796V17.1222C53.9813 16.955 54.5664 16.8714 54.9844 16.8714C56.2384 16.8714 56.7399 17.4566 56.7399 18.8776V24.3109C56.8235 24.8961 57.3251 25.4812 57.9939 25.4812ZM70.6168 18.4596V21.5525C70.6168 24.1437 68.8613 25.732 65.9355 25.732C63.0932 25.732 61.2541 24.1437 61.2541 21.5525V18.4596C61.2541 15.8683 63.0096 14.2801 65.9355 14.2801C68.8613 14.2801 70.6168 15.8683 70.6168 18.4596ZM67.691 18.4596C67.691 17.4566 67.1058 16.7878 66.0191 16.7878C64.9323 16.7878 64.3472 17.373 64.3472 18.4596V21.5525C64.3472 22.5555 64.9323 23.1407 66.0191 23.1407C67.1058 23.1407 67.691 22.5555 67.691 21.5525V18.4596ZM49.0491 17.0386C49.0491 19.7135 47.0428 21.5525 44.3677 21.5525C43.699 21.5525 43.1138 21.4689 42.5286 21.2181V24.9796C42.5286 25.2304 42.2779 25.4812 42.0271 25.4812H40.1044C39.8536 25.4812 39.6028 25.2304 39.6028 24.9796V11.6889C39.6028 11.3545 39.8536 11.1037 40.1044 11.0201C41.3583 10.6022 42.6122 10.3514 43.9498 10.3514C46.9592 10.3514 49.0491 12.1904 49.0491 15.0324V17.0386ZM46.0397 14.8653C46.0397 13.5278 45.1201 12.8591 43.8662 12.8591C43.1138 12.8591 42.6122 13.1099 42.6122 13.1099V18.6268C43.1138 18.8776 43.3646 18.9612 43.9498 18.9612C45.2037 18.9612 46.1233 18.2089 46.1233 16.955V14.8653H46.0397ZM103.052 17.0386C103.052 19.7135 101.046 21.5525 98.3707 21.5525C97.7019 21.5525 97.1167 21.4689 96.5316 21.2181V24.9796C96.5316 25.2304 96.2808 25.4812 96.03 25.4812H94.1073C93.8565 25.4812 93.6057 25.2304 93.6057 24.9796V11.6889C93.6057 11.3545 93.8565 11.1037 94.1073 11.0201C95.3612 10.6022 96.6152 10.3514 97.9527 10.3514C100.962 10.3514 103.052 12.1904 103.052 15.0324V17.0386ZM100.043 14.8653C100.043 13.5278 99.123 12.8591 97.8691 12.8591C97.1167 12.8591 96.6152 13.1099 96.6152 13.1099V18.6268C97.1167 18.8776 97.3675 18.9612 97.9527 18.9612C99.2066 18.9612 100.126 18.2089 100.126 16.955V14.8653H100.043Z" fill="#5F259F"/>
</svg>
